<mxfile host="app.diagrams.net" modified="2024-03-10T15:18:15.957Z" agent="Mozilla/5.0 (Windows NT 10.0; Win64; x64) AppleWebKit/537.36 (KHTML, like Gecko) Chrome/122.0.0.0 Safari/537.36" etag="fR4cRpLyhRjX0NDBQWku" version="24.0.2" type="device">
  <diagram id="R2lEEEUBdFMjLlhIrx00" name="Page-1">
    <mxGraphModel dx="1434" dy="780" grid="1" gridSize="10" guides="1" tooltips="1" connect="1" arrows="1" fold="1" page="1" pageScale="1" pageWidth="850" pageHeight="1100" math="0" shadow="0" extFonts="Permanent Marker^https://fonts.googleapis.com/css?family=Permanent+Marker">
      <root>
        <mxCell id="0" />
        <mxCell id="1" parent="0" />
        <mxCell id="EzR9GUqf5mmi-H1Us7B5-1" value="" style="rounded=0;whiteSpace=wrap;html=1;fillColor=#ffe6cc;strokeColor=#d79b00;" parent="1" vertex="1">
          <mxGeometry x="10" y="65" width="840" height="1125" as="geometry" />
        </mxCell>
        <mxCell id="EzR9GUqf5mmi-H1Us7B5-2" value="JUGADOR(&lt;font style=&quot;&quot; color=&quot;#ff1919&quot;&gt;&lt;u style=&quot;&quot;&gt;IDJugado&lt;i&gt;r&lt;/i&gt;&lt;/u&gt;&lt;/font&gt;, nombre, apellidos, fecha_nacimiento, posicion, dorsal, &lt;font style=&quot;&quot; color=&quot;#ff0000&quot;&gt;&lt;i&gt;nombreEquipo&lt;/i&gt;&lt;/font&gt;)" style="text;html=1;strokeColor=none;fillColor=none;align=center;verticalAlign=middle;whiteSpace=wrap;rounded=0;" parent="1" vertex="1">
          <mxGeometry x="165" y="310" width="510" height="30" as="geometry" />
        </mxCell>
        <mxCell id="EzR9GUqf5mmi-H1Us7B5-3" value="NACIONALIDAD(&lt;font color=&quot;#ff1919&quot;&gt;&lt;u&gt;nacion,&lt;i&gt;IDJugador&lt;/i&gt;&lt;/u&gt;&lt;/font&gt;)" style="text;html=1;strokeColor=none;fillColor=none;align=center;verticalAlign=middle;whiteSpace=wrap;rounded=0;" parent="1" vertex="1">
          <mxGeometry x="180" y="140" width="510" height="30" as="geometry" />
        </mxCell>
        <mxCell id="EzR9GUqf5mmi-H1Us7B5-4" value="ESTADÍSTICAJUGADOR(&lt;font style=&quot;text-decoration-line: underline;&quot; color=&quot;#ff1919&quot;&gt;IDEstadisticaJugador, &lt;/font&gt;&lt;font style=&quot;&quot;&gt;Estado, Asistencias, Goles, TarjetasAmarillas, TarjetasRojas, MinutosJugados, &lt;i&gt;&lt;font color=&quot;#ff0000&quot;&gt;IDJugador&lt;/font&gt;&lt;/i&gt;&lt;/font&gt;)" style="text;html=1;strokeColor=none;fillColor=none;align=center;verticalAlign=middle;whiteSpace=wrap;rounded=0;" parent="1" vertex="1">
          <mxGeometry x="70" y="220" width="755" height="30" as="geometry" />
        </mxCell>
        <mxCell id="EzR9GUqf5mmi-H1Us7B5-6" value="EQUIPO(&lt;font style=&quot;&quot; color=&quot;#ff1919&quot;&gt;&lt;u&gt;nombreEquipo&lt;/u&gt;&lt;/font&gt;, estadio, direccion, capacidad, fechaFundacion, logo, &lt;font style=&quot;&quot; color=&quot;#ff0000&quot;&gt;&lt;i&gt;nombreGrupo&lt;/i&gt;&lt;/font&gt;)" style="text;html=1;strokeColor=none;fillColor=none;align=center;verticalAlign=middle;whiteSpace=wrap;rounded=0;" parent="1" vertex="1">
          <mxGeometry x="165" y="510" width="510" height="30" as="geometry" />
        </mxCell>
        <mxCell id="EzR9GUqf5mmi-H1Us7B5-7" value="GRUPO(&lt;font style=&quot;&quot; color=&quot;#ff1919&quot;&gt;&lt;u&gt;nombreGrupo&lt;/u&gt;&lt;/font&gt;)" style="text;html=1;strokeColor=none;fillColor=none;align=center;verticalAlign=middle;whiteSpace=wrap;rounded=0;" parent="1" vertex="1">
          <mxGeometry x="160" y="580" width="510" height="30" as="geometry" />
        </mxCell>
        <mxCell id="EzR9GUqf5mmi-H1Us7B5-8" value="ESTADÍSTICAEQUIPO(&lt;font style=&quot;&quot; color=&quot;#ff1919&quot;&gt;&lt;u&gt;codEstadisticaEquipo&lt;/u&gt;&lt;/font&gt;, partGanados, partEmpatados, partPerdidos, puntos, &lt;font style=&quot;&quot; color=&quot;#ff0000&quot;&gt;&lt;i&gt;nombreEquipo&lt;/i&gt;&lt;/font&gt;)" style="text;html=1;strokeColor=none;fillColor=none;align=center;verticalAlign=middle;whiteSpace=wrap;rounded=0;" parent="1" vertex="1">
          <mxGeometry x="137.5" y="420" width="620" height="30" as="geometry" />
        </mxCell>
        <mxCell id="EzR9GUqf5mmi-H1Us7B5-9" value="PARTIDO(&lt;font style=&quot;&quot; color=&quot;#ff1919&quot;&gt;&lt;u&gt;IDPartido&lt;/u&gt;&lt;/font&gt;, fecha, hora, resultado)" style="text;html=1;strokeColor=none;fillColor=none;align=center;verticalAlign=middle;whiteSpace=wrap;rounded=0;" parent="1" vertex="1">
          <mxGeometry x="192.5" y="830" width="510" height="30" as="geometry" />
        </mxCell>
        <mxCell id="EzR9GUqf5mmi-H1Us7B5-10" value="ESTADÍSTICAPARTIDO(&lt;font style=&quot;&quot; color=&quot;#ff0000&quot;&gt;&lt;u&gt;codEstadisitcaPartido&lt;/u&gt;&lt;/font&gt;, Eventorel, minuto, &lt;font style=&quot;&quot; color=&quot;#ff0000&quot;&gt;&lt;i&gt;IDPartido&lt;/i&gt;&lt;/font&gt;)" style="text;html=1;strokeColor=none;fillColor=none;align=center;verticalAlign=middle;whiteSpace=wrap;rounded=0;" parent="1" vertex="1">
          <mxGeometry x="192.5" y="750" width="510" height="30" as="geometry" />
        </mxCell>
        <mxCell id="EzR9GUqf5mmi-H1Us7B5-11" value="ÁRBITRO(&lt;font style=&quot;&quot; color=&quot;#ff0000&quot;&gt;&lt;u&gt;IDArbitro&lt;/u&gt;&lt;/font&gt;, nombre, apellidos, tipoArbitro, categoría, especialización)" style="text;html=1;strokeColor=none;fillColor=none;align=center;verticalAlign=middle;whiteSpace=wrap;rounded=0;" parent="1" vertex="1">
          <mxGeometry x="180" y="1130" width="510" height="30" as="geometry" />
        </mxCell>
        <mxCell id="EzR9GUqf5mmi-H1Us7B5-13" value="JUEGA(&lt;i style=&quot;color: rgb(255, 25, 25);&quot;&gt;nombreEquipo, IDPartido, &lt;/i&gt;tipo)" style="text;html=1;strokeColor=none;fillColor=none;align=center;verticalAlign=middle;whiteSpace=wrap;rounded=0;" parent="1" vertex="1">
          <mxGeometry x="180" y="660" width="510" height="30" as="geometry" />
        </mxCell>
        <mxCell id="EzR9GUqf5mmi-H1Us7B5-15" value="ARBITRA(&lt;font style=&quot;&quot; color=&quot;#ff0000&quot;&gt;&lt;i&gt;IDArbitro, IDPartido&lt;/i&gt;&lt;/font&gt;)" style="text;html=1;strokeColor=none;fillColor=none;align=center;verticalAlign=middle;whiteSpace=wrap;rounded=0;" parent="1" vertex="1">
          <mxGeometry x="165" y="1060" width="510" height="30" as="geometry" />
        </mxCell>
        <mxCell id="EzR9GUqf5mmi-H1Us7B5-27" value="" style="endArrow=classic;html=1;rounded=0;exitX=0.626;exitY=-0.077;exitDx=0;exitDy=0;exitPerimeter=0;" parent="1" source="EzR9GUqf5mmi-H1Us7B5-3" edge="1">
          <mxGeometry width="50" height="50" relative="1" as="geometry">
            <mxPoint x="510" y="239" as="sourcePoint" />
            <mxPoint x="160" y="330" as="targetPoint" />
            <Array as="points">
              <mxPoint x="500" y="120" />
              <mxPoint x="20" y="120" />
              <mxPoint x="20" y="190" />
              <mxPoint x="20" y="330" />
            </Array>
          </mxGeometry>
        </mxCell>
        <mxCell id="EzR9GUqf5mmi-H1Us7B5-29" value="" style="endArrow=classic;html=1;rounded=0;exitX=0.953;exitY=-0.017;exitDx=0;exitDy=0;exitPerimeter=0;" parent="1" source="EzR9GUqf5mmi-H1Us7B5-4" edge="1">
          <mxGeometry width="50" height="50" relative="1" as="geometry">
            <mxPoint x="530" y="259" as="sourcePoint" />
            <mxPoint x="160" y="318" as="targetPoint" />
            <Array as="points">
              <mxPoint x="790" y="200" />
              <mxPoint x="30" y="200" />
              <mxPoint x="30" y="318" />
            </Array>
          </mxGeometry>
        </mxCell>
        <mxCell id="EzR9GUqf5mmi-H1Us7B5-30" value="" style="endArrow=classic;html=1;rounded=0;entryX=0;entryY=0.5;entryDx=0;entryDy=0;" parent="1" target="EzR9GUqf5mmi-H1Us7B5-6" edge="1">
          <mxGeometry width="50" height="50" relative="1" as="geometry">
            <mxPoint x="620" y="310" as="sourcePoint" />
            <mxPoint x="220" y="190" as="targetPoint" />
            <Array as="points">
              <mxPoint x="620" y="280" />
              <mxPoint x="790" y="280" />
              <mxPoint x="790" y="370" />
              <mxPoint x="20" y="370" />
              <mxPoint x="20" y="525" />
            </Array>
          </mxGeometry>
        </mxCell>
        <mxCell id="EzR9GUqf5mmi-H1Us7B5-31" value="" style="endArrow=classic;html=1;rounded=0;entryX=0;entryY=0;entryDx=0;entryDy=0;" parent="1" target="EzR9GUqf5mmi-H1Us7B5-6" edge="1">
          <mxGeometry width="50" height="50" relative="1" as="geometry">
            <mxPoint x="720" y="420" as="sourcePoint" />
            <mxPoint x="230" y="200" as="targetPoint" />
            <Array as="points">
              <mxPoint x="720" y="400" />
              <mxPoint x="30" y="400" />
              <mxPoint x="30" y="510" />
            </Array>
          </mxGeometry>
        </mxCell>
        <mxCell id="EzR9GUqf5mmi-H1Us7B5-32" value="" style="endArrow=classic;html=1;rounded=0;entryX=0;entryY=1;entryDx=0;entryDy=0;" parent="1" target="EzR9GUqf5mmi-H1Us7B5-6" edge="1">
          <mxGeometry width="50" height="50" relative="1" as="geometry">
            <mxPoint x="430" y="660" as="sourcePoint" />
            <mxPoint x="111" y="590" as="targetPoint" />
            <Array as="points">
              <mxPoint x="430" y="640" />
              <mxPoint x="70" y="640" />
              <mxPoint x="70" y="540" />
            </Array>
          </mxGeometry>
        </mxCell>
        <mxCell id="EzR9GUqf5mmi-H1Us7B5-33" value="" style="endArrow=classic;html=1;rounded=0;entryX=0.353;entryY=0.333;entryDx=0;entryDy=0;entryPerimeter=0;" parent="1" target="EzR9GUqf5mmi-H1Us7B5-7" edge="1">
          <mxGeometry width="50" height="50" relative="1" as="geometry">
            <mxPoint x="627.5" y="510" as="sourcePoint" />
            <mxPoint x="362.5" y="390" as="targetPoint" />
            <Array as="points">
              <mxPoint x="627.5" y="490" />
              <mxPoint x="780" y="490" />
              <mxPoint x="780" y="570" />
              <mxPoint x="290" y="570" />
              <mxPoint x="290" y="590" />
            </Array>
          </mxGeometry>
        </mxCell>
        <mxCell id="EzR9GUqf5mmi-H1Us7B5-34" value="" style="endArrow=classic;html=1;rounded=0;entryX=0.178;entryY=0.004;entryDx=0;entryDy=0;entryPerimeter=0;" parent="1" target="EzR9GUqf5mmi-H1Us7B5-9" edge="1">
          <mxGeometry width="50" height="50" relative="1" as="geometry">
            <mxPoint x="627.5" y="750" as="sourcePoint" />
            <mxPoint x="362.5" y="630" as="targetPoint" />
            <Array as="points">
              <mxPoint x="627.5" y="730" />
              <mxPoint x="150" y="730" />
              <mxPoint x="150" y="830" />
            </Array>
          </mxGeometry>
        </mxCell>
        <mxCell id="EzR9GUqf5mmi-H1Us7B5-35" value="" style="endArrow=classic;html=1;rounded=0;entryX=0.172;entryY=0.5;entryDx=0;entryDy=0;entryPerimeter=0;" parent="1" target="EzR9GUqf5mmi-H1Us7B5-9" edge="1">
          <mxGeometry width="50" height="50" relative="1" as="geometry">
            <mxPoint x="490" y="660" as="sourcePoint" />
            <mxPoint x="225" y="540" as="targetPoint" />
            <Array as="points">
              <mxPoint x="490" y="640" />
              <mxPoint x="700" y="640" />
              <mxPoint x="700" y="700" />
              <mxPoint x="80" y="700" />
              <mxPoint x="80" y="845" />
            </Array>
          </mxGeometry>
        </mxCell>
        <mxCell id="-Z1qUkmFWwa2oZBvV7p1-1" value="REGULAR(&lt;font style=&quot;&quot; color=&quot;#ff1919&quot;&gt;&lt;u&gt;IDPartido&lt;/u&gt;&lt;/font&gt;, nºJornada)" style="text;html=1;strokeColor=none;fillColor=none;align=center;verticalAlign=middle;whiteSpace=wrap;rounded=0;" vertex="1" parent="1">
          <mxGeometry x="180" y="900" width="510" height="30" as="geometry" />
        </mxCell>
        <mxCell id="-Z1qUkmFWwa2oZBvV7p1-2" value="PLAYOFF(&lt;font style=&quot;&quot; color=&quot;#ff1919&quot;&gt;&lt;u&gt;IDPartido&lt;/u&gt;&lt;/font&gt;, fase, tipo)" style="text;html=1;strokeColor=none;fillColor=none;align=center;verticalAlign=middle;whiteSpace=wrap;rounded=0;" vertex="1" parent="1">
          <mxGeometry x="175" y="960" width="510" height="30" as="geometry" />
        </mxCell>
        <mxCell id="-Z1qUkmFWwa2oZBvV7p1-3" value="" style="endArrow=classic;html=1;rounded=0;exitX=0.5;exitY=1;exitDx=0;exitDy=0;entryX=0.078;entryY=0.333;entryDx=0;entryDy=0;entryPerimeter=0;" edge="1" parent="1" source="EzR9GUqf5mmi-H1Us7B5-15" target="EzR9GUqf5mmi-H1Us7B5-11">
          <mxGeometry width="50" height="50" relative="1" as="geometry">
            <mxPoint x="400" y="1030" as="sourcePoint" />
            <mxPoint x="450" y="980" as="targetPoint" />
            <Array as="points">
              <mxPoint x="420" y="1120" />
              <mxPoint x="100" y="1120" />
              <mxPoint x="100" y="1140" />
            </Array>
          </mxGeometry>
        </mxCell>
        <mxCell id="-Z1qUkmFWwa2oZBvV7p1-4" value="" style="endArrow=classic;html=1;rounded=0;exitX=0.567;exitY=0.067;exitDx=0;exitDy=0;exitPerimeter=0;entryX=0.16;entryY=0.967;entryDx=0;entryDy=0;entryPerimeter=0;" edge="1" parent="1" source="EzR9GUqf5mmi-H1Us7B5-15" target="EzR9GUqf5mmi-H1Us7B5-9">
          <mxGeometry width="50" height="50" relative="1" as="geometry">
            <mxPoint x="400" y="1030" as="sourcePoint" />
            <mxPoint x="450" y="980" as="targetPoint" />
            <Array as="points">
              <mxPoint x="454" y="1040" />
              <mxPoint x="160" y="1040" />
              <mxPoint x="160" y="860" />
            </Array>
          </mxGeometry>
        </mxCell>
        <mxCell id="-Z1qUkmFWwa2oZBvV7p1-5" value="" style="endArrow=classic;html=1;rounded=0;exitX=0.598;exitY=-0.033;exitDx=0;exitDy=0;exitPerimeter=0;entryX=0.294;entryY=0.333;entryDx=0;entryDy=0;entryPerimeter=0;" edge="1" parent="1" source="EzR9GUqf5mmi-H1Us7B5-15" target="-Z1qUkmFWwa2oZBvV7p1-1">
          <mxGeometry width="50" height="50" relative="1" as="geometry">
            <mxPoint x="400" y="1030" as="sourcePoint" />
            <mxPoint x="450" y="980" as="targetPoint" />
            <Array as="points">
              <mxPoint x="470" y="1020" />
              <mxPoint x="200" y="1020" />
              <mxPoint x="200" y="910" />
            </Array>
          </mxGeometry>
        </mxCell>
        <mxCell id="-Z1qUkmFWwa2oZBvV7p1-6" value="" style="endArrow=classic;html=1;rounded=0;exitX=0.637;exitY=-0.133;exitDx=0;exitDy=0;exitPerimeter=0;" edge="1" parent="1" source="EzR9GUqf5mmi-H1Us7B5-15">
          <mxGeometry width="50" height="50" relative="1" as="geometry">
            <mxPoint x="400" y="1030" as="sourcePoint" />
            <mxPoint x="330" y="970" as="targetPoint" />
            <Array as="points">
              <mxPoint x="490" y="990" />
              <mxPoint x="240" y="990" />
              <mxPoint x="240" y="970" />
            </Array>
          </mxGeometry>
        </mxCell>
        <mxCell id="-Z1qUkmFWwa2oZBvV7p1-7" value="&lt;font color=&quot;#0000ff&quot; style=&quot;font-size: 10px;&quot;&gt;B:R, M:C&lt;/font&gt;" style="text;html=1;align=center;verticalAlign=middle;whiteSpace=wrap;rounded=0;" vertex="1" parent="1">
          <mxGeometry x="300" y="850" width="50" height="20" as="geometry" />
        </mxCell>
        <mxCell id="-Z1qUkmFWwa2oZBvV7p1-8" value="&lt;font color=&quot;#0000ff&quot; style=&quot;font-size: 10px;&quot;&gt;B:R, M:C&lt;/font&gt;" style="text;html=1;align=center;verticalAlign=middle;whiteSpace=wrap;rounded=0;" vertex="1" parent="1">
          <mxGeometry x="280" y="770" width="50" height="20" as="geometry" />
        </mxCell>
        <mxCell id="-Z1qUkmFWwa2oZBvV7p1-9" value="&lt;font color=&quot;#0000ff&quot; style=&quot;font-size: 10px;&quot;&gt;B:R, M:C&lt;/font&gt;" style="text;html=1;align=center;verticalAlign=middle;whiteSpace=wrap;rounded=0;" vertex="1" parent="1">
          <mxGeometry x="360" y="160" width="50" height="20" as="geometry" />
        </mxCell>
        <mxCell id="-Z1qUkmFWwa2oZBvV7p1-10" value="&lt;font color=&quot;#0000ff&quot; style=&quot;font-size: 10px;&quot;&gt;B:R, M:C&lt;/font&gt;" style="text;html=1;align=center;verticalAlign=middle;whiteSpace=wrap;rounded=0;" vertex="1" parent="1">
          <mxGeometry x="125" y="240" width="50" height="20" as="geometry" />
        </mxCell>
        <mxCell id="-Z1qUkmFWwa2oZBvV7p1-11" value="&lt;font color=&quot;#0000ff&quot; style=&quot;font-size: 10px;&quot;&gt;B:R, M:C&lt;/font&gt;" style="text;html=1;align=center;verticalAlign=middle;whiteSpace=wrap;rounded=0;" vertex="1" parent="1">
          <mxGeometry x="175" y="330" width="50" height="20" as="geometry" />
        </mxCell>
        <mxCell id="-Z1qUkmFWwa2oZBvV7p1-12" value="&lt;font color=&quot;#0000ff&quot; style=&quot;font-size: 10px;&quot;&gt;B:R, M:C&lt;/font&gt;" style="text;html=1;align=center;verticalAlign=middle;whiteSpace=wrap;rounded=0;" vertex="1" parent="1">
          <mxGeometry x="180" y="440" width="50" height="20" as="geometry" />
        </mxCell>
        <mxCell id="-Z1qUkmFWwa2oZBvV7p1-13" value="&lt;font color=&quot;#0000ff&quot; style=&quot;font-size: 10px;&quot;&gt;B:R, M:C&lt;/font&gt;" style="text;html=1;align=center;verticalAlign=middle;whiteSpace=wrap;rounded=0;" vertex="1" parent="1">
          <mxGeometry x="175" y="530" width="50" height="20" as="geometry" />
        </mxCell>
        <mxCell id="-Z1qUkmFWwa2oZBvV7p1-16" value="&lt;font color=&quot;#0000ff&quot; style=&quot;font-size: 10px;&quot;&gt;B:R, M:C&lt;/font&gt;" style="text;html=1;align=center;verticalAlign=middle;whiteSpace=wrap;rounded=0;" vertex="1" parent="1">
          <mxGeometry x="350" y="600" width="50" height="20" as="geometry" />
        </mxCell>
        <mxCell id="-Z1qUkmFWwa2oZBvV7p1-17" value="&lt;font color=&quot;#0000ff&quot; style=&quot;font-size: 10px;&quot;&gt;B:R, M:C&lt;/font&gt;" style="text;html=1;align=center;verticalAlign=middle;whiteSpace=wrap;rounded=0;" vertex="1" parent="1">
          <mxGeometry x="330" y="680" width="50" height="20" as="geometry" />
        </mxCell>
        <mxCell id="-Z1qUkmFWwa2oZBvV7p1-18" value="&lt;font color=&quot;#0000ff&quot; style=&quot;font-size: 10px;&quot;&gt;B:R, M:C&lt;/font&gt;" style="text;html=1;align=center;verticalAlign=middle;whiteSpace=wrap;rounded=0;" vertex="1" parent="1">
          <mxGeometry x="350" y="920" width="50" height="20" as="geometry" />
        </mxCell>
        <mxCell id="-Z1qUkmFWwa2oZBvV7p1-19" value="&lt;font color=&quot;#0000ff&quot; style=&quot;font-size: 10px;&quot;&gt;B:R, M:C&lt;/font&gt;" style="text;html=1;align=center;verticalAlign=middle;whiteSpace=wrap;rounded=0;" vertex="1" parent="1">
          <mxGeometry x="350" y="990" width="50" height="20" as="geometry" />
        </mxCell>
        <mxCell id="-Z1qUkmFWwa2oZBvV7p1-20" value="&lt;font color=&quot;#0000ff&quot; style=&quot;font-size: 10px;&quot;&gt;B:R, M:C&lt;/font&gt;" style="text;html=1;align=center;verticalAlign=middle;whiteSpace=wrap;rounded=0;" vertex="1" parent="1">
          <mxGeometry x="340" y="1080" width="50" height="20" as="geometry" />
        </mxCell>
        <mxCell id="-Z1qUkmFWwa2oZBvV7p1-21" value="&lt;font color=&quot;#0000ff&quot; style=&quot;font-size: 10px;&quot;&gt;B:R, M:C&lt;/font&gt;" style="text;html=1;align=center;verticalAlign=middle;whiteSpace=wrap;rounded=0;" vertex="1" parent="1">
          <mxGeometry x="230" y="1150" width="50" height="20" as="geometry" />
        </mxCell>
      </root>
    </mxGraphModel>
  </diagram>
</mxfile>
